<svg xmlns="http://www.w3.org/2000/svg" viewBox="0 -960 960 960">
  <path d="M239.256-400q0 58.091 27.975 108.995t76.13 81.237q-5.616-8.513-8.487-18.398-2.872-9.885-2.872-19.167 1.333-26.436 12.153-50.307 10.821-23.872 31.41-43.461L480-443.921l105.819 102.82q18.923 19.311 29.885 43.321 10.961 24.011 12.294 50.447 0 9.282-2.872 19.167-2.871 9.885-7.82 18.398 47.488-30.333 75.796-81.237Q721.41-341.909 721.41-400q0-47.622-19.258-93.169-19.259-45.547-53.998-82.549-19.951 13.41-42.202 19.859Q583.7-549.41 561-549.41q-62.448 0-105.108-38.039-42.661-38.038-51.225-98.628v-9.744q-39.385 31.949-69.898 67.68-30.513 35.73-51.987 74.166t-32.5 77.464Q239.256-437.483 239.256-400ZM480-349.539l-57.436 56.436q-12.154 11.821-17.731 26.029-5.577 14.208-5.577 29.074 0 32.769 23.498 55.757 23.497 22.987 57.246 22.987 33.432 0 57.421-22.906 23.989-22.906 23.989-55.561 0-16.162-6.116-30.162-6.116-13.999-17.454-25.154l-57.84-56.5Zm-11.002-469.022V-708q0 38.637 26.832 64.819 26.831 26.183 65.17 26.183 15.609 0 30.818-5.923 15.208-5.923 28.131-17.718l22.615-24.102q67.564 44.128 106.999 114.917 39.435 70.79 39.435 150.156 0 128.206-89.846 218.103Q609.307-91.668 480-91.668q-129.027 0-218.68-89.652-89.652-89.653-89.652-218.68 0-119.178 79.371-232.447t217.959-186.114Z"/>
</svg>
