<svg xmlns="http://www.w3.org/2000/svg" viewBox="0 -960 960 960">
  <path d="M480-78.258q-33.718 0-56.974-22.166-23.256-22.167-23.59-55.885h161.128q-.334 33.718-23.59 55.885Q513.718-78.258 480-78.258ZM318.257-210.515v-67.588h323.486v67.588H318.257Zm7.846-121.128q-67.692-42.487-106.896-109.134-39.205-66.648-39.205-147.479 0-123.769 88.149-211.884 88.149-88.115 211.967-88.115 123.817 0 211.849 88.115 88.031 88.115 88.031 211.884 0 80.831-38.999 147.479-39 66.647-107.102 109.134H326.103Zm21.927-67.588h264.351q46.311-32 73.17-81.681 26.859-49.68 26.859-107.144 0-96.918-68-164.765-68-67.846-164.564-67.846t-164.41 67.713q-67.846 67.712-67.846 164.725 0 57.52 26.859 107.259t73.581 81.739Zm131.97 0Z"/>
</svg>
